<svg xmlns="http://www.w3.org/2000/svg" viewBox="0 0 960 500" role="img" aria-labelledby="title desc">
  <title id="title">Repository skill map</title>
  <desc id="desc">Diagram showing repository bootstrap and review skills at the top and the reusable skill families arranged below them.</desc>
  <rect width="960" height="500" fill="#f8fbff"/>

  <rect x="90" y="48" width="250" height="96" rx="18" fill="#dbeafe" stroke="#1d4ed8" stroke-width="2"/>
  <text x="215" y="88" font-family="Arial" font-size="28" text-anchor="middle" fill="#1e3a8a">gamp_specs</text>
  <text x="215" y="114" font-family="Arial" font-size="16" text-anchor="middle" fill="#334155">Bootstrap layout</text>
  <text x="215" y="134" font-family="Arial" font-size="16" text-anchor="middle" fill="#334155">and DS governance</text>

  <rect x="370" y="48" width="250" height="96" rx="18" fill="#e0f2fe" stroke="#0284c7" stroke-width="2"/>
  <text x="495" y="88" font-family="Arial" font-size="28" text-anchor="middle" fill="#0c4a6e">achilles_specs</text>
  <text x="495" y="114" font-family="Arial" font-size="16" text-anchor="middle" fill="#334155">Achilles runtime</text>
  <text x="495" y="134" font-family="Arial" font-size="16" text-anchor="middle" fill="#334155">and LLM conventions</text>

  <path d="M340 96 H370" stroke="#475569" stroke-width="3" fill="none"/>

  <rect x="660" y="48" width="250" height="96" rx="18" fill="#ecfeff" stroke="#0891b2" stroke-width="2"/>
  <text x="785" y="88" font-family="Arial" font-size="26" text-anchor="middle" fill="#155e75">review_specs</text>
  <text x="785" y="114" font-family="Arial" font-size="16" text-anchor="middle" fill="#334155">Step-by-step DS</text>
  <text x="785" y="134" font-family="Arial" font-size="16" text-anchor="middle" fill="#334155">review workflow</text>

  <path d="M620 96 H660" stroke="#475569" stroke-width="3" fill="none"/>

  <path d="M215 144 V190 H170 V220" stroke="#64748b" stroke-width="3" fill="none"/>
  <path d="M495 144 V190 H480 V220" stroke="#64748b" stroke-width="3" fill="none"/>
  <path d="M495 144 V190 H790 V220" stroke="#64748b" stroke-width="3" fill="none"/>
  <path d="M495 144 V332 H310 V360" stroke="#64748b" stroke-width="3" fill="none"/>
  <path d="M495 144 V332 H680 V360" stroke="#64748b" stroke-width="3" fill="none"/>

  <rect x="60" y="220" width="220" height="92" rx="16" fill="#eef2ff" stroke="#4f46e5" stroke-width="2"/>
  <text x="170" y="258" font-family="Arial" font-size="24" text-anchor="middle" fill="#312e81">article_build</text>
  <text x="170" y="284" font-family="Arial" font-size="15" text-anchor="middle" fill="#475569">Executable article</text>
  <text x="170" y="304" font-family="Arial" font-size="15" text-anchor="middle" fill="#475569">generation workflow</text>

  <rect x="370" y="220" width="220" height="92" rx="16" fill="#eef2ff" stroke="#4f46e5" stroke-width="2"/>
  <text x="480" y="258" font-family="Arial" font-size="24" text-anchor="middle" fill="#312e81">cskill_build</text>
  <text x="480" y="284" font-family="Arial" font-size="15" text-anchor="middle" fill="#475569">Specification-driven</text>
  <text x="480" y="304" font-family="Arial" font-size="15" text-anchor="middle" fill="#475569">code generation</text>

  <rect x="680" y="220" width="220" height="92" rx="16" fill="#eef2ff" stroke="#4f46e5" stroke-width="2"/>
  <text x="790" y="258" font-family="Arial" font-size="24" text-anchor="middle" fill="#312e81">dgskill_build</text>
  <text x="790" y="284" font-family="Arial" font-size="15" text-anchor="middle" fill="#475569">Dynamic direct-answer</text>
  <text x="790" y="304" font-family="Arial" font-size="15" text-anchor="middle" fill="#475569">or guarded-code flow</text>

  <rect x="200" y="360" width="220" height="92" rx="16" fill="#eef2ff" stroke="#4f46e5" stroke-width="2"/>
  <text x="310" y="398" font-family="Arial" font-size="24" text-anchor="middle" fill="#312e81">oskill_build</text>
  <text x="310" y="424" font-family="Arial" font-size="15" text-anchor="middle" fill="#475569">Declarative workflow</text>
  <text x="310" y="444" font-family="Arial" font-size="15" text-anchor="middle" fill="#475569">orchestration</text>

  <rect x="540" y="360" width="280" height="92" rx="16" fill="#fef3c7" stroke="#d97706" stroke-width="2"/>
  <text x="680" y="398" font-family="Arial" font-size="23" text-anchor="middle" fill="#92400e">antropic_skill_build</text>
  <text x="680" y="424" font-family="Arial" font-size="15" text-anchor="middle" fill="#475569">Self-contained Anthropic-style</text>
  <text x="680" y="444" font-family="Arial" font-size="15" text-anchor="middle" fill="#475569">skill portability baseline</text>
</svg>
